<?xml version="1.0" encoding="UTF-8"?>
<svg id="a" xmlns="http://www.w3.org/2000/svg" viewBox="0 0 200 1430">
  <path d="m180,1207.29c0,11.04,8.96,20,20,20v-40c-11.04,0-20,8.96-20,20Z" fill="#c00"/>
  <path d="m20,1207.29c0-11.04-8.96-20-20-20v40c11.04,0,20-8.96,20-20Z" fill="#c00"/>
  <path d="m160,1007.29c0,22.1,17.9,40,40,40v-80c-22.1,0-40,17.9-40,40Z" fill="#c00"/>
  <path d="m40,1007.29c0-22.1-17.9-40-40-40v80c22.1,0,40-17.9,40-40Z" fill="#c00"/>
  <path d="m50,807.79c0-27.62-22.38-50-50-50v100c27.62,0,50-22.38,50-50Z" fill="#c00"/>
  <path d="m140,607.29c0,33.14,26.86,60,60,60v-120c-33.14,0-60,26.86-60,60Z" fill="#c00"/>
  <path d="m60,607.29c0-33.14-26.86-60-60-60v120c33.14,0,60-26.86,60-60Z" fill="#c00"/>
  <circle cx="100" cy="507.29" r="65" fill="#c00"/>
  <circle cx="100" cy="707.29" r="60" fill="#c00"/>
  <circle cx="100" cy="907.29" r="45" fill="#c00"/>
  <circle cx="100" cy="1107.29" r="31" fill="#c00"/>
  <path d="m150,807.79c0,27.62,22.38,50,50,50v-100c-27.62,0-50,22.38-50,50Z" fill="#c00"/>
  <path d="m0,0v287.29c10.42,0,20.36-2.02,29.5-5.64-2.92,8-4.5,16.64-4.5,25.64,0,14.94,4.38,28.84,11.9,40.52-10.72-6.66-23.36-10.52-36.9-10.52v140c38.66,0,70-31.34,70-70,0-13.54-3.86-26.18-10.52-36.9,11.68,7.52,25.6,11.9,40.52,11.9s28.84-4.38,40.52-11.9c-6.66,10.72-10.52,23.36-10.52,36.9,0,38.66,31.34,70,70,70v-140c-13.54,0-26.18,3.86-36.9,10.52,7.52-11.68,11.9-25.6,11.9-40.52,0-9-1.6-17.64-4.5-25.64,9.14,3.62,19.08,5.64,29.5,5.64V0H0Zm100,232.29c-9,0-17.64,1.6-25.64,4.5,3.62-9.14,5.64-19.08,5.64-29.5,0-4.24-.34-8.42-.98-12.48,6.74,1.6,13.76,2.48,20.98,2.48s14.24-.88,20.98-2.48c-.64,4.06-.98,8.24-.98,12.48,0,10.42,2.02,20.36,5.64,29.5-8-2.92-16.64-4.5-25.64-4.5Z" fill="#c00"/>
  <rect y="1420" width="200" height="10" fill="#c00" opacity="0"/>
</svg>