<?xml version="1.0" encoding="UTF-8"?>
<svg id="a" data-name="Layer 2" xmlns="http://www.w3.org/2000/svg" viewBox="0 0 100 570">
  <path d="m90,560c0,5.52,4.48,10,10,10v-20c-5.52,0-10,4.48-10,10Z" fill="#cc0000"/>
  <path d="m10,560c0-5.52-4.48-10-10-10v20c5.52,0,10-4.48,10-10Z" fill="#cc0000"/>
  <path d="m80,460c0,11.05,8.95,20,20,20v-40c-11.05,0-20,8.95-20,20Z" fill="#cc0000"/>
  <path d="m20,460c0-11.05-8.95-20-20-20v40c11.05,0,20-8.95,20-20Z" fill="#cc0000"/>
  <path d="m25,360.25c0-13.81-11.19-25-25-25v50c13.81,0,25-11.19,25-25Z" fill="#cc0000"/>
  <path d="m70,260c0,16.57,13.43,30,30,30v-60c-16.57,0-30,13.43-30,30Z" fill="#cc0000"/>
  <path d="m30,260c0-16.57-13.43-30-30-30v60c16.57,0,30-13.43,30-30Z" fill="#cc0000"/>
  <circle cx="50" cy="210" r="32.5" fill="#cc0000"/>
  <circle cx="50" cy="310" r="30" fill="#cc0000"/>
  <circle cx="50" cy="410" r="22.5" fill="#cc0000"/>
  <circle cx="50" cy="510" r="15.5" fill="#cc0000"/>
  <path d="m75,360.25c0,13.81,11.19,25,25,25v-50c-13.81,0-25,11.19-25,25Z" fill="#cc0000"/>
  <path d="m93.87,0H0v100c5.21,0,10.18-1.01,14.75-2.82-1.46,4-2.25,8.32-2.25,12.82,0,7.47,2.19,14.42,5.95,20.26-5.36-3.33-11.68-5.26-18.45-5.26v70c19.33,0,35-15.67,35-35,0-6.77-1.93-13.09-5.26-18.45,5.84,3.76,12.8,5.95,20.26,5.95s14.42-2.19,20.26-5.95c-3.33,5.36-5.26,11.68-5.26,18.45,0,19.33,15.67,35,35,35v-70c-6.77,0-13.09,1.93-18.45,5.26,3.76-5.84,5.95-12.8,5.95-20.26,0-4.5-.8-8.82-2.25-12.82,4.57,1.81,9.54,2.82,14.75,2.82V0h-6.13Zm-43.87,72.5c-4.5,0-8.82.8-12.82,2.25,1.81-4.57,2.82-9.54,2.82-14.75,0-2.12-.17-4.21-.49-6.24,3.37.8,6.88,1.24,10.49,1.24s7.12-.44,10.49-1.24c-.32,2.03-.49,4.12-.49,6.24,0,5.21,1.01,10.18,2.82,14.75-4-1.46-8.32-2.25-12.82-2.25Z" fill="#cc0000"/>
</svg>