<?xml version="1.0" encoding="UTF-8"?>
<svg id="a" xmlns="http://www.w3.org/2000/svg" viewBox="0 0 400 2860">
  <path d="m360,2414.58c0,22.08,17.92,40,40,40v-80c-22.08,0-40,17.92-40,40Z" fill="#c00" stroke-width="0"/>
  <path d="m40,2414.58c0-22.08-17.92-40-40-40v80c22.08,0,40-17.92,40-40Z" fill="#c00" stroke-width="0"/>
  <path d="m320,2014.58c0,44.2,35.8,80,80,80v-160c-44.2,0-80,35.8-80,80h0Z" fill="#c00" stroke-width="0"/>
  <path d="m80,2014.58c0-44.2-35.8-80-80-80v160c44.2,0,80-35.8,80-80h0Z" fill="#c00" stroke-width="0"/>
  <path d="m100,1615.58c0-55.24-44.76-100-100-100v200c55.24,0,100-44.76,100-100Z" fill="#c00" stroke-width="0"/>
  <path d="m280,1214.58c0,66.28,53.72,120,120,120v-240c-66.28,0-120,53.72-120,120Z" fill="#c00" stroke-width="0"/>
  <path d="m120,1214.58c0-66.28-53.72-120-120-120v240c66.28,0,120-53.72,120-120Z" fill="#c00" stroke-width="0"/>
  <circle cx="200" cy="1014.58" r="130" fill="#c00" stroke-width="0"/>
  <circle cx="200" cy="1414.58" r="120" fill="#c00" stroke-width="0"/>
  <circle cx="200" cy="1814.58" r="90" fill="#c00" stroke-width="0"/>
  <circle cx="200" cy="2214.58" r="62" fill="#c00" stroke-width="0"/>
  <path d="m300,1615.58c0,55.24,44.76,100,100,100v-200c-55.24,0-100,44.76-100,100Z" fill="#c00" stroke-width="0"/>
  <path d="m0,0v574.58c20.84,0,40.72-4.04,59-11.28-5.84,16-9,33.28-9,51.28,0,29.88,8.76,57.68,23.8,81.04-21.44-13.32-46.72-21.04-73.8-21.04v280c77.32,0,140-62.68,140-140,0-27.08-7.72-52.36-21.04-73.8,23.36,15.04,51.2,23.8,81.04,23.8s57.68-8.76,81.04-23.8c-13.32,21.44-21.04,46.72-21.04,73.8,0,77.32,62.68,140,140,140v-280c-27.08,0-52.36,7.72-73.8,21.04,15.04-23.36,23.8-51.2,23.8-81.04,0-18-3.2-35.28-9-51.28,18.28,7.24,38.16,11.28,59,11.28V0H0Zm200,464.58c-18,0-35.28,3.2-51.28,9,7.24-18.28,11.28-38.16,11.28-59,0-8.48-.68-16.84-1.96-24.96,13.48,3.2,27.52,4.96,41.96,4.96s28.48-1.76,41.96-4.96c-1.28,8.12-1.96,16.48-1.96,24.96,0,20.84,4.04,40.72,11.28,59-16-5.84-33.28-9-51.28-9Z" fill="#c00" stroke-width="0"/>
  <rect y="2840" width="400" height="20" fill="rgba(204, 0, 0, 0)" stroke-width="0"/>
</svg>