<?xml version="1.0" encoding="UTF-8"?>
<svg id="a" data-name="Layer 1" xmlns="http://www.w3.org/2000/svg" viewBox="0 0 489 489">
  <circle cx="244.5" cy="244.5" r="244.5" fill="#932755"/>
  <g>
    <path d="m80.27,290.6c-1.53,5.02-2.29,11.47-2.29,19.37s2.58,15.23,7.73,22c5.15,6.77,11.92,10.15,20.32,10.15,11.45,0,19.75-5.83,24.9-17.49,5.15-11.66,7.73-24.38,7.73-38.17,0-57.66-3.43-115.45-10.3-173.36l80.71,4.51c5.34,45.13,8.01,101.41,8.01,168.85,0,22.56-7.44,44.13-22.32,64.68-7.64,10.78-18.42,19.62-32.34,26.51-13.93,6.89-29.86,10.34-47.79,10.34-32.05,0-57.81-7.33-77.27-22s-29.19-32.91-29.19-54.72c0-7.52,1.52-15.92,4.58-25.2l67.54,4.51Z" fill="#fff"/>
    <path d="m323.53,330.84c13.74-.75,31.86-1.13,54.38-1.13s51.52,1.76,87,5.27l-9.73,44.75c-43.13-3.76-76.41-5.64-99.88-5.64s-60.39,2.76-110.76,8.27l-9.16-39.49c71.74-75.21,124.4-134.38,157.98-177.5-52.66,2.01-98.65,4.89-137.95,8.65l-10.88-44c46.94-6.52,121.92-10.15,224.95-10.91l9.73,32.72c-56.48,70.7-108.38,130.37-155.69,179Z" fill="#fff"/>
  </g>
</svg>